<?xml version="1.0" encoding="utf-8"?>
<!-- Generator: Adobe Illustrator 24.1.2, SVG Export Plug-In . SVG Version: 6.00 Build 0)  -->
<svg version="1.1" id="Слой_1" xmlns="http://www.w3.org/2000/svg" xmlns:xlink="http://www.w3.org/1999/xlink" x="0px" y="0px"
	 viewBox="0 0 24 24" style="enable-background:new 0 0 24 24;" xml:space="preserve">
<style type="text/css">
	.st0{fill:#2785F7;}
</style>
<path class="st0" d="M11,14.7c0.3,0,0.5-0.2,0.5-0.5v-2.9c0-0.3-0.2-0.5-0.5-0.5s-0.5,0.2-0.5,0.5v2.9C10.6,14.5,10.8,14.7,11,14.7z
	 M15.8,8.8h-1.9V8.2c0-0.8-0.6-1.5-1.4-1.5h-1c-0.8,0-1.4,0.7-1.4,1.5v0.5H8.2C7.9,8.8,7.7,9,7.7,9.2s0.2,0.5,0.5,0.5h0.5v5.5
	c0,0.8,0.6,1.5,1.4,1.5h3.8c0.8,0,1.4-0.7,1.4-1.5V9.7h0.5c0.3,0,0.5-0.2,0.5-0.5C16.2,9,16,8.8,15.8,8.8z M11,8.2
	c0-0.3,0.2-0.5,0.5-0.5h1c0.3,0,0.5,0.2,0.5,0.5v0.5H11V8.2z M14.4,15.2c0,0.3-0.2,0.5-0.5,0.5h-3.8c-0.3,0-0.5-0.2-0.5-0.5V9.7h4.8
	V15.2z M13,14.7c0.3,0,0.5-0.2,0.5-0.5v-2.9c0-0.3-0.2-0.5-0.5-0.5s-0.5,0.2-0.5,0.5v2.9C12.5,14.5,12.7,14.7,13,14.7z"/>
</svg>
